<svg xmlns="http://www.w3.org/2000/svg" xmlns:xlink="http://www.w3.org/1999/xlink" viewBox="0 0 19.67 79.48"><defs><style>.cls-1,.cls-5,.cls-7{fill:none;}.cls-2{fill:#f4e829;}.cls-12,.cls-3{fill:#fff;}.cls-4{fill:#f4d321;}.cls-5,.cls-7{stroke:#fff;stroke-miterlimit:10;}.cls-5{stroke-width:0.2px;}.cls-6{fill:#dc5040;}.cls-7{stroke-width:0.79px;}.cls-8{clip-path:url(#clip-path);}.cls-9{fill:url(#名称未設定グラデーション_40);}.cls-10{fill:#189ac1;}.cls-11{fill:#b9c962;}.cls-12{writing-mode:tb;text-orientation:sideways-right;glyph-orientation-vertical:90deg;font-size:16.46px;font-family:GenShinGothic-Heavy, Gen Shin Gothic;font-weight:800;}</style><clipPath id="clip-path"><polygon class="cls-1" points="2.7 69.98 1.9 76.55 13.87 79.01 14.93 70.36 2.7 69.98"/></clipPath><linearGradient id="名称未設定グラデーション_40" x1="1761.36" y1="777.15" x2="1761.99" y2="777.15" gradientTransform="matrix(-20.6, 0, 0, 20.6, 36296.67, -15933.83)" gradientUnits="userSpaceOnUse"><stop offset="0" stop-color="#d7372d"/><stop offset="0.07" stop-color="#d73b2d"/><stop offset="0.13" stop-color="#d9452e"/><stop offset="0.19" stop-color="#db5830"/><stop offset="0.22" stop-color="#dd6431"/><stop offset="0.36" stop-color="#e57e31"/><stop offset="0.48" stop-color="#e68541"/><stop offset="0.6" stop-color="#e68a4e"/><stop offset="0.71" stop-color="#e08565"/><stop offset="0.89" stop-color="#d47a96"/><stop offset="1" stop-color="#d47a96"/></linearGradient></defs><g id="レイヤー_2" data-name="レイヤー 2"><g id="レイヤー_1-2" data-name="レイヤー 1"><path class="cls-2" d="M14.92,73.11a2.75,2.75,0,1,1,2.8-2.74,2.78,2.78,0,0,1-2.8,2.74"/><path class="cls-3" d="M14.94,72.89a2.49,2.49,0,1,1,2.54-2.49,2.51,2.51,0,0,1-2.54,2.49"/><path class="cls-4" d="M16.14,70.4c.66,0,1.17-.22,1.12-.5s-.82-.58-1.36-.2-.43.7.24.7"/><path class="cls-5" d="M16.14,70.4c.66,0,1.17-.22,1.12-.5s-.82-.58-1.36-.2S15.47,70.4,16.14,70.4Z"/><path class="cls-4" d="M15.91,69.7c.54-.38.81-.85.61-1s-1,0-1.22.63.07.81.61.42"/><path class="cls-5" d="M15.91,69.7c.54-.38.81-.85.61-1s-1,0-1.22.63S15.37,70.09,15.91,69.7Z"/><path class="cls-4" d="M15.3,69.24c.21-.62.14-1.17-.14-1.21s-.81.59-.61,1.21.54.62.75,0"/><path class="cls-5" d="M15.3,69.24c.21-.62.14-1.17-.14-1.21s-.81.59-.61,1.21S15.09,69.86,15.3,69.24Z"/><path class="cls-4" d="M14.55,69.24c-.2-.62-.58-1-.83-.9s-.31,1,.23,1.33.81.19.6-.43"/><path class="cls-5" d="M14.55,69.24c-.2-.62-.58-1-.83-.9s-.31,1,.23,1.33S14.76,69.86,14.55,69.24Z"/><path class="cls-4" d="M14,69.67c-.54-.39-1.09-.5-1.22-.24s.32.93,1,.93.77-.31.23-.69"/><path class="cls-5" d="M14,69.67c-.54-.39-1.09-.5-1.22-.24s.32.93,1,.93S14.49,70.05,14,69.67Z"/><path class="cls-4" d="M13.71,70.37c-.66,0-1.17.22-1.12.5s.82.57,1.36.19.43-.69-.24-.69"/><path class="cls-5" d="M13.71,70.37c-.66,0-1.17.22-1.12.5s.82.57,1.36.19S14.38,70.37,13.71,70.37Z"/><path class="cls-4" d="M14,71.06c-.54.39-.82.86-.61,1.06s1,0,1.21-.63-.06-.81-.6-.43"/><path class="cls-5" d="M14,71.06c-.54.39-.82.86-.61,1.06s1,0,1.21-.63S14.49,70.68,14,71.06Z"/><path class="cls-4" d="M14.55,71.49c-.2.63-.14,1.17.14,1.21s.82-.59.61-1.21-.54-.62-.75,0"/><path class="cls-5" d="M14.55,71.49c-.2.63-.14,1.17.14,1.21s.82-.59.61-1.21S14.76,70.87,14.55,71.49Z"/><path class="cls-4" d="M15.3,71.49c.21.63.58,1,.84.9s.3-1-.24-1.33-.81-.19-.6.43"/><path class="cls-5" d="M15.3,71.49c.21.63.58,1,.84.9s.3-1-.24-1.33S15.09,70.87,15.3,71.49Z"/><path class="cls-4" d="M15.91,71.06c.54.39,1.08.5,1.21.25s-.32-.94-1-.94-.77.31-.23.69"/><path class="cls-5" d="M15.91,71.06c.54.39,1.08.5,1.21.25s-.32-.94-1-.94S15.37,70.68,15.91,71.06Z"/><polygon class="cls-6" points="11.72 75.83 12.08 74.89 19.16 77.51 18.8 78.44 11.72 75.83"/><polygon class="cls-7" points="11.72 75.83 12.08 74.89 19.16 77.51 18.8 78.44 11.72 75.83"/><g class="cls-8"><rect class="cls-9" x="1.9" y="69.98" width="13.03" height="9.03"/></g><polygon class="cls-7" points="13.87 79.01 14.93 70.36 2.7 69.98 1.9 76.55 13.87 79.01"/><path class="cls-4" d="M5.84,75.92c-.23,0-.29-.17-.13-.34a.91.91,0,0,0,.18-.71c-.06-.22.07-.33.29-.24a.87.87,0,0,0,.74,0c.2-.11.35,0,.32.2a.88.88,0,0,0,.28.68c.18.15.13.31-.09.36a.88.88,0,0,0-.58.47c-.09.21-.26.22-.37,0a.91.91,0,0,0-.64-.39"/><path class="cls-10" d="M4.63,72.22c-.16.08-.27,0-.23-.16a.62.62,0,0,0-.16-.52c-.13-.12-.08-.24.1-.26A.75.75,0,0,0,4.83,71c.08-.15.21-.15.29,0a.68.68,0,0,0,.46.32c.17,0,.21.14.08.26a.66.66,0,0,0-.21.52c0,.17-.08.24-.24.16a.78.78,0,0,0-.58,0"/><path class="cls-11" d="M8.62,73.31c-.17.07-.27,0-.22-.17a.62.62,0,0,0-.12-.53c-.12-.13-.07-.24.11-.26a.77.77,0,0,0,.51-.28c.09-.15.22-.14.29,0a.68.68,0,0,0,.44.35c.17,0,.2.16.06.27a.65.65,0,0,0-.24.5c0,.17-.1.23-.25.14a.77.77,0,0,0-.58,0"/><text class="cls-12" transform="translate(9.53 0) scale(1 0.98)">Poppin’</text></g></g></svg>