<svg xmlns="http://www.w3.org/2000/svg" xmlns:xlink="http://www.w3.org/1999/xlink" viewBox="0 0 18.18 13.37"><defs><style>.cls-1,.cls-5,.cls-7{fill:none;}.cls-2{fill:#f4e829;}.cls-3{fill:#fff;}.cls-4{fill:#f4d321;}.cls-5,.cls-7{stroke:#fff;stroke-miterlimit:10;}.cls-5{stroke-width:0.2px;}.cls-6{fill:#dc5040;}.cls-7{stroke-width:0.79px;}.cls-8{clip-path:url(#clip-path);}.cls-9{fill:url(#名称未設定グラデーション_40);}.cls-10{fill:#189ac1;}.cls-11{fill:#b9c962;}</style><clipPath id="clip-path"><polygon class="cls-1" points="1.23 2.67 0.43 10.11 12.4 12.89 13.46 3.1 1.23 2.67"/></clipPath><linearGradient id="名称未設定グラデーション_40" x1="-940.63" y1="569.79" x2="-939.99" y2="569.79" gradientTransform="matrix(-20.6, 0, 0, 20.6, -19362.21, -11729.19)" gradientUnits="userSpaceOnUse"><stop offset="0" stop-color="#d7372d"/><stop offset="0.07" stop-color="#d73b2d"/><stop offset="0.13" stop-color="#d9452e"/><stop offset="0.19" stop-color="#db5830"/><stop offset="0.22" stop-color="#dd6431"/><stop offset="0.36" stop-color="#e57e31"/><stop offset="0.48" stop-color="#e68541"/><stop offset="0.6" stop-color="#e68a4e"/><stop offset="0.71" stop-color="#e08565"/><stop offset="0.89" stop-color="#d47a96"/><stop offset="1" stop-color="#d47a96"/></linearGradient></defs><g id="レイヤー_2" data-name="レイヤー 2"><g id="レイヤー_1-2" data-name="レイヤー 1"><path class="cls-2" d="M13.46,6.2a3,3,0,0,1-2.8-3.1A3,3,0,0,1,13.46,0a3,3,0,0,1,2.8,3.1,3,3,0,0,1-2.8,3.1"/><path class="cls-3" d="M13.47,6a2.69,2.69,0,0,1-2.54-2.82A2.7,2.7,0,0,1,13.47.32,2.7,2.7,0,0,1,16,3.14,2.69,2.69,0,0,1,13.47,6"/><path class="cls-4" d="M14.67,3.14c.66,0,1.17-.25,1.12-.57s-.82-.65-1.36-.22-.43.79.24.79"/><path class="cls-5" d="M14.67,3.14c.66,0,1.17-.25,1.12-.57s-.82-.65-1.36-.22S14,3.14,14.67,3.14Z"/><path class="cls-4" d="M14.44,2.35c.54-.43.82-1,.61-1.19s-1,0-1.21.71.06.92.6.48"/><path class="cls-5" d="M14.44,2.35c.54-.43.82-1,.61-1.19s-1,0-1.21.71S13.9,2.79,14.44,2.35Z"/><path class="cls-4" d="M13.83,1.82C14,1.12,14,.51,13.69.46s-.81.67-.61,1.37.55.7.75,0"/><path class="cls-5" d="M13.83,1.82C14,1.12,14,.51,13.69.46s-.81.67-.61,1.37S13.63,2.53,13.83,1.82Z"/><path class="cls-4" d="M13.08,1.82c-.2-.7-.58-1.15-.83-1s-.31,1.07.23,1.5.81.22.6-.49"/><path class="cls-5" d="M13.08,1.82c-.2-.7-.58-1.15-.83-1s-.31,1.07.23,1.5S13.29,2.53,13.08,1.82Z"/><path class="cls-4" d="M12.48,2.31c-.54-.43-1.09-.55-1.21-.27s.31,1.06,1,1.06.77-.35.23-.79"/><path class="cls-5" d="M12.48,2.31c-.54-.43-1.09-.55-1.21-.27s.31,1.06,1,1.06S13,2.75,12.48,2.31Z"/><path class="cls-4" d="M12.25,3.1c-.67,0-1.18.26-1.13.57s.82.65,1.36.22.43-.79-.23-.79"/><path class="cls-5" d="M12.25,3.1c-.67,0-1.18.26-1.13.57s.82.65,1.36.22S12.91,3.1,12.25,3.1Z"/><path class="cls-4" d="M12.48,3.89c-.54.44-.82,1-.61,1.19s1,0,1.22-.7-.07-.92-.61-.49"/><path class="cls-5" d="M12.48,3.89c-.54.44-.82,1-.61,1.19s1,0,1.22-.7S13,3.46,12.48,3.89Z"/><path class="cls-4" d="M13.08,4.38c-.2.7-.14,1.31.14,1.36s.82-.66.61-1.36-.54-.7-.75,0"/><path class="cls-5" d="M13.08,4.38c-.2.7-.14,1.31.14,1.36s.82-.66.61-1.36S13.29,3.68,13.08,4.38Z"/><path class="cls-4" d="M13.83,4.38c.21.7.58,1.16.84,1s.31-1.07-.23-1.5-.81-.21-.61.49"/><path class="cls-5" d="M13.83,4.38c.21.7.58,1.16.84,1s.31-1.07-.23-1.5S13.63,3.68,13.83,4.38Z"/><path class="cls-4" d="M14.44,3.89c.54.44,1.08.56,1.21.28s-.32-1.07-1-1.07-.77.36-.23.79"/><path class="cls-5" d="M14.44,3.89c.54.44,1.08.56,1.21.28s-.32-1.07-1-1.07S13.9,3.46,14.44,3.89Z"/><polygon class="cls-6" points="10.25 9.28 10.61 8.23 17.69 11.19 17.33 12.24 10.25 9.28"/><polygon class="cls-7" points="10.25 9.28 10.61 8.23 17.69 11.19 17.33 12.24 10.25 9.28"/><g class="cls-8"><rect class="cls-9" x="0.43" y="2.67" width="13.03" height="10.22"/></g><polygon class="cls-7" points="12.4 12.89 13.46 3.1 1.23 2.67 0.43 10.11 12.4 12.89"/><path class="cls-4" d="M4.38,9.39c-.24,0-.3-.2-.14-.39a1.07,1.07,0,0,0,.18-.8c0-.25.08-.37.29-.27a.83.83,0,0,0,.75,0c.2-.14.34,0,.31.22a1.08,1.08,0,0,0,.28.77c.18.17.14.35-.09.4a1,1,0,0,0-.58.53c-.09.24-.25.25-.37,0a.91.91,0,0,0-.63-.44"/><path class="cls-10" d="M3.16,5.21c-.16.08-.27,0-.23-.19a.74.74,0,0,0-.16-.59c-.12-.13-.08-.27.1-.29a.77.77,0,0,0,.49-.36c.08-.17.21-.17.29,0a.69.69,0,0,0,.46.37c.18,0,.21.16.08.29A.76.76,0,0,0,4,5c0,.19-.09.27-.25.18a.66.66,0,0,0-.58,0"/><path class="cls-11" d="M7.15,6.44c-.17.07-.26,0-.22-.2a.74.74,0,0,0-.12-.6c-.12-.15-.07-.27.12-.29A.72.72,0,0,0,7.43,5c.1-.17.23-.16.29,0a.67.67,0,0,0,.44.4c.17,0,.2.18.06.3A.75.75,0,0,0,8,6.32c0,.19-.1.27-.26.16a.66.66,0,0,0-.58,0"/></g></g></svg>